<svg width="141" height="36" viewBox="0 0 141 36" fill="none" xmlns="http://www.w3.org/2000/svg">
<g clip-path="url(#clip0_10_782)">
<path d="M32.4842 0H7.97192C4.935 0 3.03692 3.24324 4.55538 5.89189L5.15192 6.97297H12.4731H28.4712C31.4538 6.97297 33.2977 10.1081 31.9962 12.6486L35.9008 5.89189C37.4192 3.24324 35.5212 0 32.4842 0Z" fill="white" fill-opacity="0.68"/>
<path d="M23.4819 27.2973C21.855 29.6757 18.2758 29.5676 16.8115 27.0271L8.78538 13.2433L5.15192 6.91895H3.95885C0.921923 6.91895 -0.976154 10.1622 0.542308 12.8108L12.7985 34C14.3169 36.5946 18.1131 36.5946 19.6315 34L27.1696 21.0271L31.8877 12.8649C31.9419 12.8108 31.9419 12.7568 31.9962 12.7027L23.6446 27.0811C23.5904 27.1352 23.5362 27.2433 23.4819 27.2973Z" fill="white"/>
<path d="M4.55538 5.89186C3.85038 4.70267 3.85038 3.29727 4.39269 2.21619L1.13885 8.10808C1.84385 7.40538 2.82 6.91889 3.95885 6.91889H5.15192L4.55538 5.89186Z" fill="white" fill-opacity="0.68"/>
<path d="M28.4712 6.91895H12.4731H5.15192L8.78538 13.2433L16.8115 27.0811C18.2758 29.6216 21.855 29.6757 23.4819 27.3514C23.5362 27.2433 23.5904 27.1892 23.6446 27.0811L31.9962 12.6487C33.2977 10.0541 31.4538 6.91895 28.4712 6.91895Z" fill="white" fill-opacity="0.7"/>
<path d="M28.4712 6.91895H12.4731H5.15192H3.95885C0.921923 6.91895 -0.976154 10.1622 0.542308 12.8108L12.7985 34C14.3169 36.5946 18.1131 36.5946 19.6315 34L27.1696 21.0271L31.8877 12.8649C31.9419 12.8108 31.9419 12.7568 31.9962 12.7027C33.2977 10.0541 31.4538 6.91895 28.4712 6.91895Z" fill="white" fill-opacity="0.6"/>
<path d="M51.6819 31.2973C50.5431 28.8649 45.9335 16.5946 44.7404 12.973H49.2958C49.5669 14 53.2546 25.3514 53.6342 26.2163C53.9596 25.3514 57.7015 14 57.9727 12.973H62.3654C61.2265 16.4325 56.5627 28.8649 55.3696 31.2973H51.6819Z" fill="white"/>
<path d="M81.5089 31.2973L81.5631 3.78381H85.7931L85.6846 31.2973H81.5089Z" fill="white"/>
<path d="M95.7715 12.5405C97.1815 12.5405 98.3746 12.7027 99.2965 13.0811C100.273 13.4054 101.032 13.9459 101.574 14.5405C102.117 15.1351 102.55 15.9459 102.822 16.8108C103.093 17.7297 103.201 18.7027 103.201 19.7838V28C103.201 29.6757 101.954 31.1351 100.273 31.4054C100.273 31.4054 100.273 31.4054 100.218 31.4054C98.9169 31.6216 97.3985 31.7297 95.7173 31.7297C94.6327 31.7297 93.6023 31.6216 92.6804 31.4054C91.7585 31.1892 90.9992 30.8649 90.3485 30.3784C89.6977 29.8919 89.2096 29.2973 88.83 28.5405C88.4504 27.7838 88.2877 26.8649 88.2877 25.7838C88.2877 24.7567 88.5046 23.8378 88.8842 23.1351C89.3181 22.4324 89.8604 21.8378 90.5654 21.3513C91.2704 20.9189 92.0838 20.5946 93.0058 20.3784C93.9277 20.1621 94.9038 20.054 95.88 20.054C96.3681 20.054 96.8561 20.1081 97.3442 20.1621C97.8323 20.2162 98.4288 20.3243 98.9711 20.4865V19.7838C98.9711 19.2973 98.9169 18.8108 98.8085 18.3784C98.7 17.9459 98.4831 17.5676 98.2119 17.1892C97.9408 16.8649 97.5069 16.5946 97.0731 16.3784C96.585 16.2162 95.9885 16.1081 95.2835 16.1081C94.3073 16.1081 93.3854 16.1621 92.5719 16.3243C91.7585 16.4865 91.1077 16.6486 90.5654 16.8108L90.0231 13.4054C90.5654 13.2432 91.3246 13.027 92.355 12.8649C93.4938 12.5946 94.5785 12.5405 95.7715 12.5405ZM96.0969 28.3243C97.3985 28.3243 98.4288 28.2703 99.0796 28.1081V23.4054C98.8627 23.3513 98.4831 23.2432 98.0492 23.1892C97.6154 23.1351 97.1273 23.0811 96.585 23.0811C96.0969 23.0811 95.6631 23.1351 95.175 23.1892C94.6869 23.2432 94.2531 23.4054 93.8735 23.5676C93.4938 23.7297 93.1685 24 92.9515 24.3784C92.7346 24.7027 92.6262 25.1351 92.6262 25.6757C92.6262 26.7027 92.9515 27.3513 93.5481 27.7838C94.1988 28.1081 95.0123 28.3243 96.0969 28.3243Z" fill="white"/>
<path d="M117.03 16.8108C116.705 16.7027 116.217 16.5946 115.566 16.4324C114.969 16.3243 114.21 16.2162 113.397 16.2162C112.908 16.2162 112.42 16.2703 111.878 16.3784C111.336 16.4865 110.956 16.5406 110.793 16.6487V31.2973H106.563V13.8378C107.377 13.5135 108.407 13.2433 109.655 12.973C110.902 12.7027 112.258 12.5946 113.722 12.5946C113.993 12.5946 114.318 12.5946 114.698 12.6487C115.078 12.7027 115.457 12.7568 115.837 12.8108C116.217 12.8649 116.596 12.9189 116.922 13.027C117.247 13.1351 117.572 13.1892 117.789 13.2433L117.03 16.8108Z" fill="white"/>
<path d="M124.568 7.62167C124.568 8.43248 124.297 9.02708 123.809 9.51356C123.267 10.0001 122.67 10.2163 121.965 10.2163C121.26 10.2163 120.609 10.0001 120.121 9.51356C119.579 9.02708 119.362 8.43248 119.362 7.62167C119.362 6.81086 119.633 6.16221 120.121 5.67573C120.609 5.18924 121.26 4.97302 121.965 4.97302C122.67 4.97302 123.267 5.18924 123.809 5.67573C124.297 6.16221 124.568 6.81086 124.568 7.62167ZM124.134 31.2973H119.85V12.973H124.08V31.2973H124.134Z" fill="white"/>
<path d="M133.516 28.2162C134.655 28.2162 135.468 28.1081 135.957 27.8378C136.445 27.5676 136.716 27.1351 136.716 26.4324C136.716 25.8378 136.445 25.3513 135.902 24.9189C135.36 24.5405 134.438 24.1081 133.191 23.6216C132.432 23.3513 131.727 23.027 131.076 22.7027C130.425 22.3784 129.883 22 129.395 21.6216C128.907 21.1892 128.581 20.7027 128.31 20.1081C128.039 19.5135 127.93 18.8108 127.93 17.9459C127.93 16.2703 128.527 14.9189 129.774 14C131.022 13.027 132.703 12.5405 134.818 12.5405C135.902 12.5405 136.933 12.6486 137.909 12.8649C138.885 13.0811 139.644 13.2432 140.132 13.4594L139.373 16.8649C138.885 16.6486 138.288 16.4865 137.583 16.2703C136.878 16.054 136.011 16 135.035 16C134.167 16 133.462 16.1621 132.92 16.4324C132.377 16.7027 132.106 17.1892 132.106 17.7838C132.106 18.1081 132.16 18.3784 132.269 18.5946C132.377 18.8108 132.54 19.027 132.811 19.2432C133.082 19.4594 133.408 19.6216 133.842 19.8378C134.275 20.054 134.763 20.2162 135.36 20.4324C136.39 20.8108 137.204 21.1892 137.909 21.5135C138.614 21.8919 139.21 22.2703 139.644 22.7567C140.078 23.1892 140.458 23.7297 140.62 24.3243C140.837 24.9189 140.946 25.6216 140.946 26.4324C140.946 28.1622 140.295 29.5135 138.993 30.3784C137.692 31.2973 135.848 31.7297 133.408 31.7297C131.781 31.7297 130.479 31.6216 129.503 31.3513C128.527 31.0811 127.822 30.8649 127.442 30.7027L128.202 27.1892C128.852 27.4594 129.612 27.6757 130.479 27.9459C131.401 28.1081 132.432 28.2162 133.516 28.2162Z" fill="white"/>
<path d="M71.6388 31.7297C70.2288 31.7297 69.0358 31.5676 68.1138 31.1892C67.1377 30.8649 66.3785 30.3243 65.8362 29.7297C65.2938 29.1351 64.86 28.3243 64.5888 27.4594C64.3177 26.5405 64.2092 25.5676 64.2092 24.4865V16.2703C64.2092 14.5946 65.4565 13.1351 67.1377 12.8649C67.1377 12.8649 67.1377 12.8649 67.1919 12.8649C68.4935 12.6486 70.0119 12.5405 71.6931 12.5405C72.7777 12.5405 73.8081 12.6486 74.73 12.8649C75.6519 13.0811 76.4112 13.4054 77.0619 13.8919C77.7127 14.3784 78.2008 14.973 78.5804 15.7297C78.96 16.4865 79.1227 17.4054 79.1227 18.4865C79.1227 19.5135 78.9058 20.4324 78.5262 21.1351C78.0923 21.8378 77.55 22.4324 76.845 22.9189C76.14 23.3513 75.3265 23.6757 74.4046 23.8919C73.4827 24.1081 72.5065 24.2162 71.5304 24.2162C71.0423 24.2162 70.5542 24.1621 70.0661 24.1081C69.5781 24.054 68.9815 23.9459 68.4392 23.7838V24.4865C68.4392 24.973 68.4935 25.4594 68.6019 25.8919C68.7104 26.3243 68.9273 26.7027 69.1985 27.0811C69.4696 27.4054 69.9035 27.6757 70.3373 27.8919C70.8254 28.054 71.4219 28.1621 72.1269 28.1621C73.1031 28.1621 74.025 28.1081 74.8385 27.9459C75.6519 27.7838 76.3027 27.6216 76.845 27.4594L77.3873 30.8649C76.845 31.027 76.0858 31.2432 75.0554 31.4054C73.9165 31.6216 72.7777 31.7297 71.6388 31.7297ZM71.2592 15.9459C69.9577 15.9459 68.9273 16 68.2765 16.1621V20.8649C68.4935 20.9189 68.8731 21.027 69.3069 21.0811C69.7408 21.1351 70.2288 21.1892 70.7712 21.1892C71.2592 21.1892 71.6931 21.1351 72.1812 21.0811C72.6692 21.027 73.1031 20.8649 73.4827 20.7027C73.8623 20.5405 74.1877 20.2703 74.4046 19.8919C74.6215 19.5676 74.73 19.1351 74.73 18.5946C74.73 17.5676 74.4046 16.9189 73.8081 16.4865C73.2115 16.1081 72.3438 15.9459 71.2592 15.9459Z" fill="white"/>
</g>
<defs>
<clipPath id="clip0_10_782">
<rect width="141" height="36" fill="white"/>
</clipPath>
</defs>
</svg>
